# xmcd
#
# Track frame offsets:
#	150
#	3748
#	17545
#	44990
#	59513
#	94476
#
# Disc length: 1569 seconds
#
# Revision: 1
# Processed by: cddbd v1.5.2PL0 Copyright (c) Steve Scherf et al.
# Submitted via: audiograbber 1.83.01
#
DISCID=52061f06
DTITLE=Matt Katsis - The Burke and Wills Sessions
DYEAR=2016
DGENRE=Blues
TTITLE0=Introduction
TTITLE1=Call me The Breeze
TTITLE2=Sunny's Blues
TTITLE3=Shame Shame Shame 
TTITLE4=Crossroads
TTITLE5=Sunny's Blues (Solo Version)
EXTD=
EXTT0=
EXTT1=
EXTT2=
EXTT3=
EXTT4=
EXTT5=
PLAYORDER=
